<svg width="137" height="137" viewBox="0 0 137 137" fill="none" xmlns="http://www.w3.org/2000/svg">
<g id="Frame">
<g id="Group">
<path id="Vector" d="M124.156 62.7918V97.0418C124.491 99.934 124.168 102.865 123.211 105.614C122.253 108.364 120.687 110.862 118.628 112.92C116.569 114.979 114.072 116.546 111.322 117.503C108.572 118.46 105.642 118.783 102.75 118.448H34.2495C31.3573 118.783 28.4268 118.46 25.6771 117.503C22.9274 116.546 20.4298 114.979 18.371 112.92C16.3122 110.862 14.7456 108.364 13.7884 105.614C12.8311 102.865 12.508 99.934 12.8433 97.0418V39.9585C12.508 37.0663 12.8311 34.1358 13.7884 31.3861C14.7456 28.6364 16.3122 26.1387 18.371 24.08C20.4298 22.0212 22.9274 20.4546 25.6771 19.4974C28.4268 18.5401 31.3573 18.217 34.2495 18.5523H74.2078C75.3433 18.5523 76.4323 19.0033 77.2351 19.8062C78.038 20.6091 78.4891 21.698 78.4891 22.8335C78.4891 23.969 78.038 25.0579 77.2351 25.8608C76.4323 26.6637 75.3433 27.1148 74.2078 27.1148H34.2495C25.2475 27.1148 21.4058 30.9565 21.4058 39.9585V92.7606L35.9049 78.2614C36.9827 77.192 38.4395 76.5918 39.9578 76.5918C41.4762 76.5918 42.933 77.192 44.0108 78.2614L49.3766 83.6272C49.9101 84.1502 50.6274 84.4431 51.3745 84.4431C52.1216 84.4431 52.8389 84.1502 53.3724 83.6272L81.5716 55.4281C82.6494 54.3586 84.1062 53.7585 85.6245 53.7585C87.1429 53.7585 88.5997 54.3586 89.6774 55.4281L115.593 81.3439V62.7918C115.593 61.6564 116.044 60.5674 116.847 59.7645C117.65 58.9616 118.739 58.5106 119.875 58.5106C121.01 58.5106 122.099 58.9616 122.902 59.7645C123.705 60.5674 124.156 61.6564 124.156 62.7918ZM45.6262 44.2397C43.731 44.245 41.9153 45.0023 40.578 46.3453C39.2407 47.6882 38.491 49.507 38.4937 51.4023C38.4963 53.2975 39.251 55.1142 40.5921 56.4534C41.9332 57.7926 43.751 58.5448 45.6462 58.5448C47.5414 58.5448 49.3592 57.7926 50.7003 56.4534C52.0413 55.1142 52.7961 53.2975 52.7987 51.4023C52.8014 49.507 52.0517 47.6882 50.7144 46.3453C49.3771 45.0023 47.5614 44.245 45.6662 44.2397H45.6262Z" fill="gray"/>
</g>
</g>
</svg>
